# AST/ASF file generated using VICON BodyLanguage
# -----------------------------------------------
:version 1.10
:name VICON
:units
  mass 1.0
  length 0.45
  angle deg
:documentation
   .ast/.asf automatically generated from VICON data using
   VICON BodyBuilder and BodyLanguage model FoxedUp or BRILLIANT.MOD
:root
   order TX TY TZ RX RY RZ
   axis XYZ
   position 0 0 0  
   orientation 0 0 0 
:bonedata
  begin
     id 1 
     name lhipjoint
     direction 0.660183 -0.676772 0.325788 
     length 2.75133 
     axis 0 0 0  XYZ
  end
  begin
     id 2 
     name lfemur
     direction 0.34202 -0.939693 0  
     length 7.70317  
     axis 0 0 20  XYZ
    dof rx ry rz
    limits (-160.0 20.0)
           (-70.0 70.0)
           (-60.0 70.0)
  end
  begin
     id 3 
     name ltibia
     direction 0.342105 -0.939662 0   
     length 7.18701   
     axis 0 0 20   XYZ
    dof rx
    limits (-10.0 170.0)
  end
  begin
     id 4 
     name lfoot
     direction 0.14163 -0.389126 0.910232   
     length 2.41719   
     axis -90 7.62852e-016 20   XYZ
    dof rx rz
    limits (-45.0 90.0)
           (-70.0 20.0)
  end
  begin
     id 5 
     name ltoes
     direction 1.53533e-011 -4.21926e-011 1   
     length 1.18611   
     axis -90 7.62852e-016 20   XYZ
    dof rx
    limits (-90.0 20.0)
  end
  begin
     id 6 
     name rhipjoint
     direction -0.6658 -0.67229 0.323631   
     length 2.76968  
     axis 0 0 0  XYZ 
  end
  begin
     id 7 
     name rfemur
     direction -0.34202 -0.939693 0   
     length 7.92547   
     axis 0 0 -20   XYZ
    dof rx ry rz
    limits (-160.0 20.0)
           (-70.0 70.0)
           (-70.0 60.0)
  end
  begin
     id 8 
     name rtibia
     direction -0.342022 -0.939692 0   
     length 7.22641   
     axis 0 0 -20   XYZ
    dof rx
    limits (-10.0 170.0)
 end
 begin
     id 9 
     name rfoot
     direction -0.105675 -0.29034 0.951071   
     length 2.48149  
     axis -90 -7.62852e-016 -20   XYZ
    dof rx rz
    limits (-45.0 90.0)
           (-20.0 70.0)
  end
  begin
     id 10 
     name rtoes
     direction -1.5349e-011 -4.21859e-011 1   
     length 1.23343   
     axis -90 -7.62852e-016 -20   XYZ
    dof rx
    limits (-90.0 20.0)
  end
  begin
     id 11 
     name lowerback
     direction 0.0104173 0.993624 -0.112266   
     length 2.00527   
     axis 0 0 0   XYZ
    dof rx ry rz
    limits (-20.0 45.0)
           (-30.0 30.0)
           (-30.0 30.0)
  end
  begin
     id 12 
     name upperback
     direction 0.00733149 0.999856 -0.0152913   
     length 2.01385   
     axis 0 0 0   XYZ
    dof rx ry rz
    limits (-20.0 45.0)
           (-30.0 30.0)
           (-30.0 30.0)
  end
  begin
     id 13 
     name thorax
     direction 0.0026304 0.999318 0.036841   
     length 2.03734   
     axis 0 0 0   XYZ
    dof rx ry rz
    limits (-20.0 45.0)
           (-30.0 30.0)
           (-30.0 30.0)
  end
  begin
     id 14 
     name lowerneck
     direction 0.0293154 0.998757 0.0403082   
     length 1.65303   
     axis 0 0 0   XYZ
    dof rx ry rz
    limits (-20.0 45.0)
           (-30.0 30.0)
           (-30.0 30.0)
  end
  begin
     id 15 
     name upperneck
     direction -0.0376619 0.998184 -0.0470083   
     length 1.60926   
     axis 0 0 0   XYZ
    dof rx ry rz
    limits (-20.0 45.0)
           (-30.0 30.0)
           (-30.0 30.0)
  end
  begin
     id 16
     name head
     direction -0.0170133 0.999635 -0.0209778  
     length 1.73625  
     axis 0 0 0   XYZ
    dof rx ry rz
    limits (-20.0 45.0)
           (-30.0 30.0)
           (-30.0 30.0)
  end
  begin
     id 17 
     name lclavicle
     direction 0.919857 0.39181 -0.0186333  
     length 3.75313  
     axis 0 0 0   XYZ
    dof ry rz
    limits (-20.0 10.0)
           (0.0 20.0)
  end
  begin
     id 18 
     name lhumerus
     direction 1 -4.48988e-011 1.44029e-027   
     length 5.49313   
     axis 180 -30 -90   XYZ
    dof rx ry rz
    limits (-60.0 90.0)
           (-90.0 90.0)
           (-90.0 90.0)
  end
  begin
     id 19
     name lradius
     direction 1 -4.48924e-011 7.46281e-027   
     length 3.29037   
     axis 180 -30 -90   XYZ
    dof rx
    limits (-10.0 170.0)
  end
  begin
     id 20
     name lwrist
     direction 1 -4.48955e-011 2.19879e-026   
     length 1.64519   
     axis -1.34358e-014 90 90   XYZ
    dof ry
    limits (-180.0 0.0)
 end
  begin
     id 21 
     name lhand
     direction 1 -4.48978e-011 4.39747e-026   
     length 0.729656   
     axis -2.80598e-014 90 90   XYZ
    dof rx rz
    limits (-90.0 90.0)
           (-45.0 45.0)
  end
  begin
     id 22 
     name lfingers
     direction 1 -4.49071e-011 8.79411e-026   
     length 0.588268   
     axis -5.61193e-014 90 90   XYZ
    dof rx
    limits (0.0 90.0)
  end
  begin
     id 23
     name lthumb
     direction 0.707107 -6.34817e-011 0.707107   
     length 0.844638   
     axis -90 45 -9.86923e-015   XYZ
    dof rx rz
    limits (-45.0 45.0)
           (-45.0 45.0)
  end
  begin
     id 24 
     name rclavicle
     direction -0.919898 0.388279 0.0550233   
     length 3.7171  
     axis 0 0 0   XYZ 
    dof ry rz
    limits (-10.0 20.0)
           (-20.0 0.0)
  end
  begin
     id 25 
     name rhumerus
     direction -1 -4.48968e-011 9.98372e-028  
     length 5.23684   
     axis 180 30 90   XYZ
    dof rx ry rz
    limits (-90.0 60.0)
           (-90.0 90.0)
           (-90.0 90.0)
  end
  begin
     id 26 
     name rradius
     direction -1 -4.48956e-011 1.01023e-026   
     length 3.38251   
     axis 180 30 90   XYZ
    dof rx
    limits (-10.0 170.0)
  end
  begin
     id 27 
     name rwrist
     direction -1 -4.4892e-011 2.19886e-026   
     length 1.69126   
     axis -1.34358e-014 -90 -90   XYZ
    dof ry
    limits (-180.0 0.0)
  end
  begin
     id 28
     name rhand
     direction -1 -4.49024e-011 4.39727e-026   
     length 0.691454   
     axis -2.80598e-014 -90 -90   XYZ
    dof rx rz
    limits (-90.0 90.0)
           (-45.0 45.0)
  end
  begin
     id 29
     name rfingers
     direction -1 -4.49097e-011 8.79388e-026   
     length 0.557468   
     axis -5.61193e-014 -90 -90   XYZ
    dof rx
    limits (0.0 90.0)
  end
  begin
     id 30
     name rthumb
     direction -0.707107 -6.34938e-011 0.707107   
     length 0.800416   
     axis -90 -45 9.86923e-015   XYZ
    dof rx rz
    limits (-45.0 45.0)
           (-45.0 45.0)
  end
:hierarchy
  begin
    root lhipjoint rhipjoint lowerback
    lhipjoint lfemur
    lfemur ltibia
    ltibia lfoot
    lfoot ltoes
    rhipjoint rfemur
    rfemur rtibia
    rtibia rfoot
    rfoot rtoes
    lowerback upperback
    upperback thorax
    thorax lowerneck lclavicle rclavicle
    lowerneck upperneck
    upperneck head
    lclavicle lhumerus
    lhumerus lradius
    lradius lwrist
    lwrist lhand lthumb
    lhand lfingers
    rclavicle rhumerus
    rhumerus rradius
    rradius rwrist
    rwrist rhand rthumb
    rhand rfingers
  end

#!OML:ASF H:\BabyWalks\Project 1\Capture day 1\Session 1\baby.ASF
:FULLY-SPECIFIED
:DEGREES
139
root -34.4096 17.2811 15.1515 -9.67181 71.9557 -13.6284
lowerback 16.9548 0.905655 2.4297
upperback 6.08418 1.93323 1.87736
thorax -2.99471 1.07508 0.2267
lowerneck -0.870067 4.01645 7.9337
upperneck -2.12028 5.25138 -9.02161
head -0.03043 2.62545 -4.35757
rclavicle -8.18993e-014 4.37326e-015
rhumerus -48.1789 18.2814 -88.9672
rradius 40.4476
rwrist 6.32101
rhand -12.5681 -14.5785
rfingers 7.12502
rthumb 13.5095 -44.1203
lclavicle -8.18993e-014 4.37326e-015
lhumerus -50.2718 -8.52705 84.1166
lradius 47.8699
lwrist 5.14416
lhand -1.36737 12.7987
lfingers 7.12502
lthumb 24.28 41.2811
rfemur 6.66211 8.44556 24.5187
rtibia 13.8163
rfoot -22.1242 -7.73681
rtoes -3.82241
lfemur -22.9186 -2.11218 -12.9883
ltibia 41.764
lfoot -24.4481 -5.64741
ltoes -0.235109
140
root -34.3664 17.274 15.1412 -9.54865 72.0341 -13.7039
lowerback 16.8966 1.0134 2.35441
upperback 6.07794 2.05262 1.7554
thorax -2.96738 1.1338 0.119598
lowerneck -0.934639 3.92581 7.96998
upperneck -2.14343 5.1243 -8.84572
head -0.0427478 2.55901 -4.30294
rclavicle -1.40143e-014 -9.34288e-015
rhumerus -48.3675 18.0788 -89.0793
rradius 40.4615
rwrist 6.27387
rhand -12.4909 -14.6203
rfingers 7.12502
rthumb 13.5839 -44.1571
lclavicle -1.40143e-014 -9.34288e-015
lhumerus -50.3181 -8.70354 84.0127
lradius 47.6119
lwrist 5.01595
lhand -0.848757 13.0271
lfingers 7.12502
lthumb 24.7772 41.4422
rfemur 6.69585 8.63776 24.4891
rtibia 13.656
rfoot -22.1855 -7.98844
rtoes -3.90959
lfemur -23.0848 -2.13396 -13.0609
ltibia 41.9284
lfoot -24.6833 -5.67652
ltoes -0.108738
141
root -34.3212 17.2675 15.1312 -9.38033 72.117 -13.7443
lowerback 16.8168 1.12632 2.26386
upperback 6.07208 2.17508 1.62163
thorax -2.92801 1.19407 0.00901044
lowerneck -1.01081 3.83121 8.00906
upperneck -2.16881 4.99123 -8.66873
head -0.0540023 2.4894 -4.24843
rclavicle -4.18939e-014 -6.95746e-016
rhumerus -48.5644 17.8822 -89.2117
rradius 40.4897
rwrist 6.19647
rhand -12.3961 -14.6504
rfingers 7.12502
rthumb 13.6752 -44.1811
lclavicle -4.18939e-014 -6.95746e-016
lhumerus -50.3485 -8.8641 83.8783
lradius 47.3458
lwrist 4.8497
lhand -0.350039 13.2381
lfingers 7.12502
lthumb 25.2551 41.5866
rfemur 6.71888 8.86043 24.453
rtibia 13.5098
rfoot -22.253 -8.2769
rtoes -4.018
lfemur -23.2538 -2.17078 -13.1463
ltibia 42.0877
lfoot -24.9155 -5.68927
ltoes 0.00613968
142
root -34.2745 17.2607 15.1214 -9.17781 72.2031 -13.7614
lowerback 16.7212 1.24428 2.16102
upperback 6.06464 2.30135 1.47727
thorax -2.88165 1.25621 -0.105639
lowerneck -1.08776 3.73255 8.0498
upperneck -2.20642 4.8523 -8.48894
head -0.069425 2.41693 -4.19361
rclavicle 3.27995e-015 -4.57205e-015
rhumerus -48.7654 17.6896 -89.3619
rradius 40.5264
rwrist 6.08447
rhand -12.2837 -14.6636
rfingers 7.12502
rthumb 13.7836 -44.187
lclavicle 3.27995e-015 -4.57205e-015
lhumerus -50.3625 -9.00978 83.714
lradius 47.075
lwrist 4.65497
lhand 0.188088 13.5324
lfingers 7.12502
lthumb 25.7705 41.8071
rfemur 6.72627 9.11075 24.4135
rtibia 13.3831
rfoot -22.3283 -8.59956
rtoes -4.13139
lfemur -23.4308 -2.21982 -13.2402
ltibia 42.2456
lfoot -25.1383 -5.69203
ltoes 0.124693
143
root -34.2263 17.2538 15.1117 -8.94144 72.2971 -13.7551
lowerback 16.6181 1.36612 2.04857
upperback 6.05032 2.43066 1.32062
thorax -2.83811 1.31967 -0.22776
lowerneck -1.1641 3.62916 8.09804
upperneck -2.24932 4.70697 -8.30684
head -0.0868818 2.34126 -4.13976
rclavicle 9.19379e-016 2.94698e-014
rhumerus -48.9773 17.4909 -89.5293
rradius 40.5769
rwrist 5.93791
rhand -12.1501 -14.6663
rfingers 7.12502
rthumb 13.9123 -44.1809
lclavicle 9.19379e-016 2.94698e-014
lhumerus -50.3687 -9.14893 83.5227
lradius 46.8037
lwrist 4.44022
lhand 0.668764 13.7599
lfingers 7.12502
lthumb 26.2308 41.9671
rfemur 6.71607 9.38053 24.3692
rtibia 13.2802
rfoot -22.4128 -8.95546
rtoes -4.26267
lfemur -23.6142 -2.28646 -13.3439
ltibia 42.4001
lfoot -25.3592 -5.6807
ltoes 0.223469
144
root -34.1769 17.2466 15.1021 -8.68963 72.4068 -13.7417
lowerback 16.4963 1.48623 1.92919
upperback 6.03754 2.55617 1.15343
thorax -2.78259 1.38147 -0.355149
lowerneck -1.22282 3.52157 8.16293
upperneck -2.31555 4.55635 -8.13133
head -0.114664 2.26322 -4.09243
rclavicle -3.39798e-014 1.41137e-014
rhumerus -49.1812 17.2901 -89.71
rradius 40.6268
rwrist 5.77723
rhand -11.9986 -14.6562
rfingers 7.12502
rthumb 14.0584 -44.1607
lclavicle -3.39798e-014 1.41137e-014
lhumerus -50.3469 -9.28265 83.3025
lradius 46.5245
lwrist 4.21709
lhand 1.10961 13.9727
lfingers 7.12502
lthumb 26.6528 42.1164
rfemur 6.68277 9.67161 24.3273
rtibia 13.219
rfoot -22.5143 -9.35435
rtoes -4.40353
lfemur -23.8057 -2.37813 -13.453
ltibia 42.5548
lfoot -25.5755 -5.66126
ltoes 0.315955
145
root -34.1262 17.2391 15.0927 -8.41898 72.5279 -13.7112
lowerback 16.3727 1.60411 1.79364
upperback 6.02066 2.67667 0.981208
thorax -2.73069 1.44063 -0.477248
lowerneck -1.26412 3.41199 8.22894
upperneck -2.39332 4.40409 -7.95923
head -0.149098 2.18465 -4.04713
rclavicle 3.81107e-015 8.82107e-016
rhumerus -49.388 17.1021 -89.9016
rradius 40.6789
rwrist 5.60357
rhand -11.8273 -14.6458
rfingers 7.12502
rthumb 14.2234 -44.1388
lclavicle 3.81107e-015 8.82107e-016
lhumerus -50.3106 -9.4004 83.0628
lradius 46.2415
lwrist 3.99021
lhand 1.46821 14.0991
lfingers 7.12502
lthumb 26.9959 42.1901
rfemur 6.63131 9.96654 24.2823
rtibia 13.202
rfoot -22.6304 -9.77753
rtoes -4.57139
lfemur -23.9961 -2.48984 -13.5697
ltibia 42.708
lfoot -25.7868 -5.63993
ltoes 0.423045
146
root -34.0739 17.2312 15.0836 -8.12563 72.6475 -13.6573
lowerback 16.243 1.72066 1.633
upperback 6.00495 2.79218 0.807638
thorax -2.67525 1.49724 -0.584922
lowerneck -1.29395 3.30625 8.27706
upperneck -2.48526 4.25795 -7.77839
head -0.190029 2.1094 -3.99551
rclavicle -2.16675e-014 1.97791e-014
rhumerus -49.5862 16.9414 -90.0997
rradius 40.7213
rwrist 5.43827
rhand -11.6526 -14.6204
rfingers 7.12502
rthumb 14.3917 -44.1015
lclavicle -2.16675e-014 1.97791e-014
lhumerus -50.2568 -9.48822 82.8058
lradius 45.959
lwrist 3.75862
lhand 1.78215 14.2116
lfingers 7.12502
lthumb 27.2962 42.2558
rfemur 6.56064 10.2618 24.2322
rtibia 13.2363
rfoot -22.7661 -10.2103
rtoes -4.75998
lfemur -24.178 -2.60776 -13.6933
ltibia 42.8591
lfoot -25.9971 -5.62063
ltoes 0.547544
147
root -34.0199 17.223 15.075 -7.82059 72.7655 -13.5867
lowerback 16.1196 1.83656 1.45313
upperback 5.98212 2.90469 0.631401
thorax -2.63131 1.55201 -0.683951
lowerneck -1.30935 3.20111 8.31687
upperneck -2.57628 4.11421 -7.59131
head -0.233084 2.03554 -3.9403
rclavicle 4.71617e-014 1.00386e-014
rhumerus -49.7907 16.7958 -90.3074
rradius 40.7582
rwrist 5.28173
rhand -11.469 -14.6004
rfingers 7.12502
rthumb 14.5687 -44.0688
lclavicle 4.71617e-014 1.00386e-014
lhumerus -50.2011 -9.55624 82.5341
lradius 45.6808
lwrist 3.5248
lhand 2.0101 14.2339
lfingers 7.12502
lthumb 27.5143 42.2435
rfemur 6.47697 10.5477 24.1786
rtibia 13.3177
rfoot -22.9174 -10.6413
rtoes -4.95831
lfemur -24.3461 -2.72772 -13.8212
ltibia 43.0042
lfoot -26.2062 -5.60902
ltoes 0.691533
148
root -33.9646 17.2147 15.0669 -7.51217 72.8843 -13.5068
lowerback 16.0119 1.94437 1.24509
upperback 5.95426 3.00368 0.459394
thorax -2.60283 1.59964 -0.760693
lowerneck -1.32823 3.10633 8.3378
upperneck -2.65593 3.98514 -7.39986
head -0.27078 1.96906 -3.87938
rclavicle 7.10655e-015 1.12313e-014
rhumerus -49.9897 16.6944 -90.5235
rradius 40.7788
rwrist 5.14807
rhand -11.2973 -14.5753
rfingers 7.12502
rthumb 14.7341 -44.0317
lclavicle 7.10655e-015 1.12313e-014
lhumerus -50.1431 -9.57966 82.2485
lradius 45.4127
lwrist 3.28687
lhand 2.14487 14.1833
lfingers 7.12502
lthumb 27.6431 42.1724
rfemur 6.3802 10.8124 24.1232
rtibia 13.4471
rfoot -23.0838 -11.0619
rtoes -5.17389
lfemur -24.4971 -2.84506 -13.9506
ltibia 43.1411
lfoot -26.4186 -5.60863
ltoes 0.836534
149
root -33.9079 17.207 15.0596 -7.21271 72.9978 -13.4284
lowerback 15.9155 2.04587 1.01425
upperback 5.92681 3.09224 0.290912
thorax -2.58142 1.64195 -0.819282
lowerneck -1.36103 3.02141 8.33605
upperneck -2.724 3.86942 -7.19444
head -0.301583 1.90917 -3.80853
rclavicle 1.59028e-015 -3.97569e-016
rhumerus -50.1731 16.6268 -90.7425
rradius 40.7851
rwrist 5.03597
rhand -11.1349 -14.5469
rfingers 7.12502
rthumb 14.8906 -43.9917
lclavicle 1.59028e-015 -3.97569e-016
lhumerus -50.0741 -9.56712 81.9484
lradius 45.1601
lwrist 3.04958
lhand 2.23919 14.09
lfingers 7.12502
lthumb 27.7333 42.0646
rfemur 6.27745 11.0465 24.0679
rtibia 13.6112
rfoot -23.2535 -11.459
rtoes -5.41876
lfemur -24.6236 -2.95458 -14.0772
ltibia 43.2618
lfoot -26.6304 -5.61924
ltoes 0.984926
